<svg xmlns="http://www.w3.org/2000/svg" width="24" height="24" viewBox="0 0 24 24" fill="none"><path d="M12 24C18.65 24 24 18.65 24 12C24 5.34996 18.65 0 12 0C5.34996 0 0 5.34996 0 12C0 18.65 5.34996 24 12 24Z" fill="#2775CA"></path><path d="M15.3 13.9C15.3 12.15 14.25 11.55 12.15 11.3001C10.6499 11.1 10.3499 10.7001 10.3499 10C10.3499 9.29993 10.85 8.85005 11.85 8.85005C12.75 8.85005 13.25 9.15005 13.5 9.90005C13.55 10.05 13.7 10.15 13.85 10.15H14.6499C14.85 10.15 15 10 15 9.80009V9.75005C14.7999 8.65001 13.8999 7.80005 12.75 7.70009V6.50009C12.75 6.30005 12.6 6.15005 12.35 6.10001H11.6C11.4 6.10001 11.25 6.25001 11.1999 6.50009V7.65005C9.6999 7.85009 8.74998 8.85005 8.74998 10.1001C8.74998 11.7501 9.74994 12.4 11.85 12.6501C13.25 12.9 13.7 13.2 13.7 14.0001C13.7 14.8001 12.9999 15.3501 12.05 15.3501C10.7499 15.3501 10.2999 14.8 10.1499 14.05C10.1 13.8501 9.94998 13.75 9.79998 13.75H8.9499C8.74998 13.75 8.59998 13.9 8.59998 14.1V14.1501C8.7999 15.4 9.59994 16.3 11.25 16.5501V17.7501C11.25 17.95 11.4 18.1 11.6499 18.1501H12.3999C12.6 18.1501 12.75 18.0001 12.8 17.7501V16.5501C14.3 16.3 15.3 15.25 15.3 13.9Z" fill="white"></path><path d="M9.45018 19.15C5.55018 17.75 3.55014 13.4 5.00022 9.54997C5.75022 7.44997 7.40022 5.85001 9.45018 5.10001C9.65022 5.00005 9.75018 4.85005 9.75018 4.59997V3.90001C9.75018 3.69997 9.65022 3.54997 9.45018 3.50005C9.40014 3.50005 9.30018 3.50005 9.25014 3.54997C4.50018 5.04997 1.90014 10.1 3.40014 14.85C4.30014 17.65 6.45018 19.8 9.25014 20.7C9.45018 20.8 9.65022 20.7 9.70014 20.5C9.75018 20.45 9.75018 20.4 9.75018 20.3V19.6C9.75018 19.45 9.60018 19.25 9.45018 19.15ZM14.7502 3.54997C14.5502 3.45001 14.3501 3.54997 14.3002 3.75001C14.2502 3.80005 14.2502 3.84997 14.2502 3.95005V4.65001C14.2502 4.85005 14.4002 5.04997 14.5502 5.15005C18.4502 6.54997 20.4502 10.9 19.0001 14.75C18.2501 16.85 16.6001 18.45 14.5502 19.2C14.3501 19.3 14.2502 19.45 14.2502 19.7V20.4C14.2502 20.6 14.3501 20.75 14.5502 20.8C14.6002 20.8 14.7002 20.8 14.7502 20.75C19.5002 19.25 22.1002 14.2 20.6002 9.45001C19.7002 6.60001 17.5001 4.44997 14.7502 3.54997Z" fill="white"></path></svg>